<?xml version="1.0" encoding="utf-8"?>
<!-- Generator: Adobe Illustrator 12.0.0, SVG Export Plug-In . SVG Version: 6.00 Build 51448)  -->
<!DOCTYPE svg PUBLIC "-//W3C//DTD SVG 1.1//EN" "http://www.w3.org/Graphics/SVG/1.1/DTD/svg11.dtd" [
	<!ENTITY ns_svg "http://www.w3.org/2000/svg">
	<!ENTITY ns_xlink "http://www.w3.org/1999/xlink">
]>
<svg  version="1.1" xmlns="&ns_svg;" xmlns:xlink="&ns_xlink;" width="430.497" height="327.346" viewBox="0 0 430.497 327.346"
	 overflow="visible" enable-background="new 0 0 430.497 327.346" xml:space="preserve">
<g id="Layer_1">
	<polygon fill="#BFBFBF" points="200.858,34.016 168.097,84.288 183.913,84.288 183.913,285.937 217.803,285.937 217.803,84.288 
		233.619,84.288 	"/>
	<g>
		<circle fill="#FFFFFF" stroke="#000000" cx="146.858" cy="267.016" r="9"/>
		<circle fill="#FFFFFF" stroke="#000000" cx="173.858" cy="267.016" r="9"/>
		<circle fill="#FFFFFF" stroke="#000000" cx="200.858" cy="267.016" r="9"/>
		<circle fill="#FFFFFF" stroke="#000000" cx="227.858" cy="267.016" r="9"/>
		<circle fill="#FFFFFF" stroke="#000000" cx="254.858" cy="267.016" r="9"/>
	</g>
	<g>
		<circle fill="#FFFFFF" stroke="#000000" cx="119.858" cy="195.016" r="9"/>
		<circle fill="#FFFFFF" stroke="#000000" cx="146.858" cy="195.016" r="9"/>
		<circle fill="#FFFFFF" stroke="#000000" cx="173.858" cy="195.016" r="9"/>
		<circle fill="#FFFFFF" stroke="#000000" cx="200.858" cy="195.016" r="9"/>
		<circle fill="#FFFFFF" stroke="#000000" cx="227.858" cy="195.016" r="9"/>
		<circle fill="#FFFFFF" stroke="#000000" cx="254.858" cy="195.016" r="9"/>
		<circle fill="#FFFFFF" stroke="#000000" cx="281.858" cy="195.016" r="9"/>
	</g>
	<g>
		<circle fill="#FFFFFF" stroke="#000000" cx="106.358" cy="159.016" r="9"/>
		<circle fill="#FFFFFF" stroke="#000000" cx="133.358" cy="159.016" r="9"/>
		<circle fill="#FFFFFF" stroke="#000000" cx="160.358" cy="159.016" r="9"/>
		<circle fill="#FFFFFF" stroke="#000000" cx="187.358" cy="159.016" r="9"/>
		<circle fill="#FFFFFF" stroke="#000000" cx="214.358" cy="159.016" r="9"/>
		<circle fill="#FFFFFF" stroke="#000000" cx="241.358" cy="159.016" r="9"/>
		<circle fill="#FFFFFF" stroke="#000000" cx="268.358" cy="159.016" r="9"/>
		<circle fill="#FFFFFF" stroke="#000000" cx="295.358" cy="159.016" r="9"/>
	</g>
	<g>
		<circle fill="#FFFFFF" stroke="#000000" cx="119.858" cy="123.016" r="9"/>
		<circle fill="#FFFFFF" stroke="#000000" cx="146.858" cy="123.016" r="9"/>
		<circle fill="#FFFFFF" stroke="#000000" cx="173.858" cy="123.016" r="9"/>
		<circle fill="#FFFFFF" stroke="#000000" cx="200.858" cy="123.016" r="9"/>
		<circle fill="#FFFFFF" stroke="#000000" cx="227.858" cy="123.016" r="9"/>
		<circle fill="#FFFFFF" stroke="#000000" cx="254.858" cy="123.016" r="9"/>
		<circle fill="#FFFFFF" stroke="#000000" cx="281.858" cy="123.016" r="9"/>
	</g>
	<g>
		<circle fill="#FFFFFF" stroke="#000000" cx="133.358" cy="231.016" r="9"/>
		<circle fill="#FFFFFF" stroke="#000000" cx="160.358" cy="231.016" r="9"/>
		<circle fill="#FFFFFF" stroke="#000000" cx="187.358" cy="231.016" r="9"/>
		<circle fill="#FFFFFF" stroke="#000000" cx="214.358" cy="231.016" r="9"/>
		<circle fill="#FFFFFF" stroke="#000000" cx="241.358" cy="231.016" r="9"/>
		<circle fill="#FFFFFF" stroke="#000000" cx="268.358" cy="231.016" r="9"/>
	</g>
	<g>
		<circle fill="#FFFFFF" stroke="#000000" cx="133.358" cy="87.016" r="9"/>
		<circle fill="#FFFFFF" stroke="#000000" cx="160.358" cy="87.016" r="9"/>
		<circle fill="#FFFFFF" stroke="#000000" cx="187.358" cy="87.016" r="9"/>
		<circle fill="#FFFFFF" stroke="#000000" cx="214.358" cy="87.016" r="9"/>
		<circle fill="#FFFFFF" stroke="#000000" cx="241.358" cy="87.016" r="9"/>
		<circle fill="#FFFFFF" stroke="#000000" cx="268.358" cy="87.016" r="9"/>
	</g>
	<g>
		<circle fill="#FFFFFF" stroke="#000000" cx="146.858" cy="51.016" r="9"/>
		<circle fill="#FFFFFF" stroke="#000000" cx="173.858" cy="51.016" r="9"/>
		<circle fill="#FFFFFF" stroke="#000000" cx="200.858" cy="51.016" r="9"/>
		<circle fill="#FFFFFF" stroke="#000000" cx="227.858" cy="51.016" r="9"/>
		<circle fill="#FFFFFF" stroke="#000000" cx="254.858" cy="51.016" r="9"/>
	</g>
	<text transform="matrix(1.0481 0 0 1 40.5 272.8818)" font-family="'TimesNewRomanPSMT'" font-size="14">Dropout Layer</text>
	<text transform="matrix(1.0481 0 0 1 27 236.8818)" font-family="'TimesNewRomanPSMT'" font-size="14">Hidden Layer</text>
	<text transform="matrix(1.0481 0 0 1 13.5 200.8818)" font-family="'TimesNewRomanPSMT'" font-size="14">Hidden Layer</text>
	<text transform="matrix(1.0481 0 0 1 0 164.8818)" font-family="'TimesNewRomanPSMT'" font-size="14">Hidden Layer</text>
	<text transform="matrix(1.0481 0 0 1 13.5 128.8809)" font-family="'TimesNewRomanPSMT'" font-size="14">Hidden Layer</text>
	<text transform="matrix(1.0481 0 0 1 27 92.8809)" font-family="'TimesNewRomanPSMT'" font-size="14">Hidden Layer</text>
	<text transform="matrix(1.0481 0 0 1 40.5 56.8809)" font-family="'TimesNewRomanPSMT'" font-size="14">Output Layer</text>
	<text transform="matrix(1 0 0 1 280.062 272.8813)" font-family="'TimesNewRomanPS-ItalicMT'" font-size="18">n</text>
	<text transform="matrix(1 0 0 1 293.562 236.8813)"><tspan x="0" y="0" font-family="'TimesNewRomanPS-ItalicMT'" font-size="18">n + </tspan><tspan x="30.146" y="0" font-family="'TimesNewRomanPSMT'" font-size="18">ϴ</tspan></text>
	<text transform="matrix(1 0 0 1 307.062 200.8813)"><tspan x="0" y="0" font-family="'TimesNewRomanPS-ItalicMT'" font-size="18">n </tspan><tspan x="13.5" y="0" font-family="'TimesNewRomanPSMT'" font-size="18">+ 2ϴ</tspan></text>
	<text transform="matrix(1 0 0 1 320.562 164.8813)"><tspan x="0" y="0" font-family="'TimesNewRomanPS-ItalicMT'" font-size="18">n </tspan><tspan x="13.5" y="0" font-family="'TimesNewRomanPSMT'" font-size="18">+ 3ϴ</tspan></text>
	<text transform="matrix(1 0 0 1 307.062 128.8813)"><tspan x="0" y="0" font-family="'TimesNewRomanPS-ItalicMT'" font-size="18">n </tspan><tspan x="13.5" y="0" font-family="'TimesNewRomanPSMT'" font-size="18">+ 2ϴ</tspan></text>
	<text transform="matrix(1 0 0 1 293.562 92.8813)"><tspan x="0" y="0" font-family="'TimesNewRomanPS-ItalicMT'" font-size="18">n +</tspan><tspan x="25.646" y="0" font-family="'TimesNewRomanPSMT'" font-size="18"> ϴ</tspan></text>
	<text transform="matrix(1 0 0 1 280.062 56.8813)" font-family="'TimesNewRomanPS-ItalicMT'" font-size="18">n</text>
	<text transform="matrix(1 0 0 1 197.1782 305.4683)" font-family="'TimesNewRomanPS-ItalicMT'" font-size="18">x</text>
	<text transform="matrix(1 0 0 1 188.2793 20.3882)"><tspan x="0" y="0" font-family="'TimesNewRomanPS-ItalicMT'" font-size="18">x</tspan><tspan x="7.989" y="0" font-family="'TimesNewRomanPSMT'" font-size="10">pred</tspan></text>
</g>
<g id="invisible" display="none">
	<g display="inline">
		<path fill="none" stroke="#000000" d="M348.66,326.879c35.02-13.557,81.337-88.987,81.337-161.828S383.679,16.78,348.66,3.223"/>
		<path d="M349.611,3.591l0.742,4.151l-0.144,0.032l-4.637-4.297c-1.746-1.159-3.493-2.318-5.239-3.477
			c2.071,0.319,4.144,0.638,6.215,0.957l6.321-0.055l0.092,0.102L349.611,3.591z"/>
	</g>
</g>
</svg>
