<?xml version="1.0" encoding="utf-8"?>
<!-- Generator: Adobe Illustrator 12.0.0, SVG Export Plug-In . SVG Version: 6.00 Build 51448)  -->
<!DOCTYPE svg PUBLIC "-//W3C//DTD SVG 1.1//EN" "http://www.w3.org/Graphics/SVG/1.1/DTD/svg11.dtd" [
	<!ENTITY ns_svg "http://www.w3.org/2000/svg">
	<!ENTITY ns_xlink "http://www.w3.org/1999/xlink">
]>
<svg  version="1.1" id="Layer_1" xmlns="&ns_svg;" xmlns:xlink="&ns_xlink;" width="369.598" height="358.964"
	 viewBox="0 0 369.598 358.964" overflow="visible" enable-background="new 0 0 369.598 358.964" xml:space="preserve">
<rect x="309.098" y="95.464" fill="#FFFFFF" stroke="#000000" width="60" height="75"/>
<g>
	<g>
		<circle fill="#FFFFFF" stroke="#000000" stroke-width="0.25" cx="325.598" cy="159.964" r="2.25"/>
		<circle fill="#FFFFFF" stroke="#000000" stroke-width="0.25" cx="332.348" cy="159.964" r="2.25"/>
		<circle fill="#FFFFFF" stroke="#000000" stroke-width="0.25" cx="339.098" cy="159.964" r="2.25"/>
		<circle fill="#FFFFFF" stroke="#000000" stroke-width="0.25" cx="345.848" cy="159.964" r="2.25"/>
		<circle fill="#FFFFFF" stroke="#000000" stroke-width="0.25" cx="352.598" cy="159.964" r="2.25"/>
	</g>
	<g>
		<circle fill="#FFFFFF" stroke="#000000" stroke-width="0.25" cx="318.848" cy="141.964" r="2.25"/>
		<circle fill="#FFFFFF" stroke="#000000" stroke-width="0.25" cx="325.598" cy="141.964" r="2.25"/>
		<circle fill="#FFFFFF" stroke="#000000" stroke-width="0.25" cx="332.348" cy="141.964" r="2.25"/>
		<circle fill="#FFFFFF" stroke="#000000" stroke-width="0.25" cx="339.098" cy="141.964" r="2.25"/>
		<circle fill="#FFFFFF" stroke="#000000" stroke-width="0.25" cx="345.848" cy="141.964" r="2.25"/>
		<circle fill="#FFFFFF" stroke="#000000" stroke-width="0.25" cx="352.598" cy="141.964" r="2.25"/>
		<circle fill="#FFFFFF" stroke="#000000" stroke-width="0.25" cx="359.348" cy="141.964" r="2.25"/>
	</g>
	<g>
		<circle fill="#FFFFFF" stroke="#000000" stroke-width="0.25" cx="315.473" cy="132.964" r="2.25"/>
		<circle fill="#FFFFFF" stroke="#000000" stroke-width="0.25" cx="322.223" cy="132.964" r="2.25"/>
		<circle fill="#FFFFFF" stroke="#000000" stroke-width="0.25" cx="328.973" cy="132.964" r="2.25"/>
		<circle fill="#FFFFFF" stroke="#000000" stroke-width="0.25" cx="335.723" cy="132.964" r="2.25"/>
		<circle fill="#FFFFFF" stroke="#000000" stroke-width="0.25" cx="342.473" cy="132.964" r="2.25"/>
		<circle fill="#FFFFFF" stroke="#000000" stroke-width="0.25" cx="349.223" cy="132.964" r="2.25"/>
		<circle fill="#FFFFFF" stroke="#000000" stroke-width="0.25" cx="355.973" cy="132.964" r="2.25"/>
		<circle fill="#FFFFFF" stroke="#000000" stroke-width="0.25" cx="362.723" cy="132.964" r="2.25"/>
	</g>
	<g>
		<circle fill="#FFFFFF" stroke="#000000" stroke-width="0.25" cx="318.848" cy="123.964" r="2.25"/>
		<circle fill="#FFFFFF" stroke="#000000" stroke-width="0.25" cx="325.598" cy="123.964" r="2.25"/>
		<circle fill="#FFFFFF" stroke="#000000" stroke-width="0.25" cx="332.348" cy="123.964" r="2.25"/>
		<circle fill="#FFFFFF" stroke="#000000" stroke-width="0.25" cx="339.098" cy="123.964" r="2.25"/>
		<circle fill="#FFFFFF" stroke="#000000" stroke-width="0.25" cx="345.848" cy="123.964" r="2.25"/>
		<circle fill="#FFFFFF" stroke="#000000" stroke-width="0.25" cx="352.598" cy="123.964" r="2.25"/>
		<circle fill="#FFFFFF" stroke="#000000" stroke-width="0.25" cx="359.348" cy="123.964" r="2.25"/>
	</g>
	<g>
		<circle fill="#FFFFFF" stroke="#000000" stroke-width="0.25" cx="322.223" cy="150.964" r="2.25"/>
		<circle fill="#FFFFFF" stroke="#000000" stroke-width="0.25" cx="328.973" cy="150.964" r="2.25"/>
		<circle fill="#FFFFFF" stroke="#000000" stroke-width="0.25" cx="335.723" cy="150.964" r="2.25"/>
		<circle fill="#FFFFFF" stroke="#000000" stroke-width="0.25" cx="342.473" cy="150.964" r="2.25"/>
		<circle fill="#FFFFFF" stroke="#000000" stroke-width="0.25" cx="349.223" cy="150.964" r="2.25"/>
		<circle fill="#FFFFFF" stroke="#000000" stroke-width="0.25" cx="355.973" cy="150.964" r="2.25"/>
	</g>
	<g>
		<circle fill="#FFFFFF" stroke="#000000" stroke-width="0.25" cx="322.223" cy="114.964" r="2.25"/>
		<circle fill="#FFFFFF" stroke="#000000" stroke-width="0.25" cx="328.973" cy="114.964" r="2.25"/>
		<circle fill="#FFFFFF" stroke="#000000" stroke-width="0.25" cx="335.723" cy="114.964" r="2.25"/>
		<circle fill="#FFFFFF" stroke="#000000" stroke-width="0.25" cx="342.473" cy="114.964" r="2.25"/>
		<circle fill="#FFFFFF" stroke="#000000" stroke-width="0.25" cx="349.223" cy="114.964" r="2.25"/>
		<circle fill="#FFFFFF" stroke="#000000" stroke-width="0.25" cx="355.973" cy="114.964" r="2.25"/>
	</g>
	<g>
		<circle fill="#FFFFFF" stroke="#000000" stroke-width="0.25" cx="325.598" cy="105.964" r="2.25"/>
		<circle fill="#FFFFFF" stroke="#000000" stroke-width="0.25" cx="332.348" cy="105.964" r="2.25"/>
		<circle fill="#FFFFFF" stroke="#000000" stroke-width="0.25" cx="339.098" cy="105.964" r="2.25"/>
		<circle fill="#FFFFFF" stroke="#000000" stroke-width="0.25" cx="345.848" cy="105.964" r="2.25"/>
		<circle fill="#FFFFFF" stroke="#000000" stroke-width="0.25" cx="352.598" cy="105.964" r="2.25"/>
	</g>
</g>
<g>
	<g>
		<g>
			<line fill="none" stroke="#000000" x1="0" y1="346.464" x2="30" y2="346.464"/>
			<path d="M29.49,346.464l-1.096-1.802l0.062-0.04l2.938,1.166c1.023,0.226,2.047,0.45,3.07,0.676
				c-1.023,0.225-2.047,0.45-3.07,0.676l-2.938,1.166l-0.062-0.03L29.49,346.464z"/>
		</g>
	</g>
</g>
<g>
	<rect x="29.098" y="201.464" fill="none" stroke="#000000" width="59.999" height="36"/>
	<text transform="matrix(1 0 0 1 47.5972 216.4248)"><tspan x="0" y="0" font-family="'TimesNewRomanPSMT'" font-size="9">Single</tspan><tspan x="-8.246" y="10.799" font-family="'TimesNewRomanPSMT'" font-size="9">Imputation</tspan></text>
</g>
<g>
	<rect x="29.098" y="29.464" fill="none" stroke="#000000" width="340" height="36"/>
	<text transform="matrix(1 0 0 1 181.3535 49.8242)" font-family="'TimesNewRomanPSMT'" font-size="9">Ensemble</text>
</g>
<rect x="239.098" y="95.464" fill="#FFFFFF" stroke="#000000" width="60" height="75"/>
<g>
	<g>
		<circle fill="#FFFFFF" stroke="#000000" stroke-width="0.25" cx="255.598" cy="159.964" r="2.25"/>
		<circle fill="#FFFFFF" stroke="#000000" stroke-width="0.25" cx="262.348" cy="159.964" r="2.25"/>
		<circle fill="#FFFFFF" stroke="#000000" stroke-width="0.25" cx="269.098" cy="159.964" r="2.25"/>
		<circle fill="#FFFFFF" stroke="#000000" stroke-width="0.25" cx="275.848" cy="159.964" r="2.25"/>
		<circle fill="#FFFFFF" stroke="#000000" stroke-width="0.25" cx="282.598" cy="159.964" r="2.25"/>
	</g>
	<g>
		<circle fill="#FFFFFF" stroke="#000000" stroke-width="0.25" cx="248.848" cy="141.964" r="2.25"/>
		<circle fill="#FFFFFF" stroke="#000000" stroke-width="0.25" cx="255.598" cy="141.964" r="2.25"/>
		<circle fill="#FFFFFF" stroke="#000000" stroke-width="0.25" cx="262.348" cy="141.964" r="2.25"/>
		<circle fill="#FFFFFF" stroke="#000000" stroke-width="0.25" cx="269.098" cy="141.964" r="2.25"/>
		<circle fill="#FFFFFF" stroke="#000000" stroke-width="0.25" cx="275.848" cy="141.964" r="2.25"/>
		<circle fill="#FFFFFF" stroke="#000000" stroke-width="0.25" cx="282.598" cy="141.964" r="2.25"/>
		<circle fill="#FFFFFF" stroke="#000000" stroke-width="0.25" cx="289.348" cy="141.964" r="2.25"/>
	</g>
	<g>
		<circle fill="#FFFFFF" stroke="#000000" stroke-width="0.25" cx="245.473" cy="132.964" r="2.25"/>
		<circle fill="#FFFFFF" stroke="#000000" stroke-width="0.25" cx="252.223" cy="132.964" r="2.25"/>
		<circle fill="#FFFFFF" stroke="#000000" stroke-width="0.25" cx="258.973" cy="132.964" r="2.25"/>
		<circle fill="#FFFFFF" stroke="#000000" stroke-width="0.25" cx="265.723" cy="132.964" r="2.25"/>
		<circle fill="#FFFFFF" stroke="#000000" stroke-width="0.25" cx="272.473" cy="132.964" r="2.25"/>
		<circle fill="#FFFFFF" stroke="#000000" stroke-width="0.25" cx="279.223" cy="132.964" r="2.25"/>
		<circle fill="#FFFFFF" stroke="#000000" stroke-width="0.25" cx="285.973" cy="132.964" r="2.25"/>
		<circle fill="#FFFFFF" stroke="#000000" stroke-width="0.25" cx="292.723" cy="132.964" r="2.25"/>
	</g>
	<g>
		<circle fill="#FFFFFF" stroke="#000000" stroke-width="0.25" cx="248.848" cy="123.964" r="2.25"/>
		<circle fill="#FFFFFF" stroke="#000000" stroke-width="0.25" cx="255.598" cy="123.964" r="2.25"/>
		<circle fill="#FFFFFF" stroke="#000000" stroke-width="0.25" cx="262.348" cy="123.964" r="2.25"/>
		<circle fill="#FFFFFF" stroke="#000000" stroke-width="0.25" cx="269.098" cy="123.964" r="2.25"/>
		<circle fill="#FFFFFF" stroke="#000000" stroke-width="0.25" cx="275.848" cy="123.964" r="2.25"/>
		<circle fill="#FFFFFF" stroke="#000000" stroke-width="0.25" cx="282.598" cy="123.964" r="2.25"/>
		<circle fill="#FFFFFF" stroke="#000000" stroke-width="0.25" cx="289.348" cy="123.964" r="2.25"/>
	</g>
	<g>
		<circle fill="#FFFFFF" stroke="#000000" stroke-width="0.25" cx="252.223" cy="150.964" r="2.25"/>
		<circle fill="#FFFFFF" stroke="#000000" stroke-width="0.25" cx="258.973" cy="150.964" r="2.25"/>
		<circle fill="#FFFFFF" stroke="#000000" stroke-width="0.25" cx="265.723" cy="150.964" r="2.25"/>
		<circle fill="#FFFFFF" stroke="#000000" stroke-width="0.25" cx="272.473" cy="150.964" r="2.25"/>
		<circle fill="#FFFFFF" stroke="#000000" stroke-width="0.25" cx="279.223" cy="150.964" r="2.25"/>
		<circle fill="#FFFFFF" stroke="#000000" stroke-width="0.25" cx="285.973" cy="150.964" r="2.25"/>
	</g>
	<g>
		<circle fill="#FFFFFF" stroke="#000000" stroke-width="0.25" cx="252.223" cy="114.964" r="2.25"/>
		<circle fill="#FFFFFF" stroke="#000000" stroke-width="0.25" cx="258.973" cy="114.964" r="2.25"/>
		<circle fill="#FFFFFF" stroke="#000000" stroke-width="0.25" cx="265.723" cy="114.964" r="2.25"/>
		<circle fill="#FFFFFF" stroke="#000000" stroke-width="0.25" cx="272.473" cy="114.964" r="2.25"/>
		<circle fill="#FFFFFF" stroke="#000000" stroke-width="0.25" cx="279.223" cy="114.964" r="2.25"/>
		<circle fill="#FFFFFF" stroke="#000000" stroke-width="0.25" cx="285.973" cy="114.964" r="2.25"/>
	</g>
	<g>
		<circle fill="#FFFFFF" stroke="#000000" stroke-width="0.25" cx="255.598" cy="105.964" r="2.25"/>
		<circle fill="#FFFFFF" stroke="#000000" stroke-width="0.25" cx="262.348" cy="105.964" r="2.25"/>
		<circle fill="#FFFFFF" stroke="#000000" stroke-width="0.25" cx="269.098" cy="105.964" r="2.25"/>
		<circle fill="#FFFFFF" stroke="#000000" stroke-width="0.25" cx="275.848" cy="105.964" r="2.25"/>
		<circle fill="#FFFFFF" stroke="#000000" stroke-width="0.25" cx="282.598" cy="105.964" r="2.25"/>
	</g>
</g>
<g>
	<g>
		<path fill="none" stroke="#000000" d="M269.098,169.464"/>
	</g>
	<g>
		<path fill="none" stroke="#000000" d="M269.098,194.464"/>
	</g>
</g>
<rect x="169.098" y="95.464" fill="#FFFFFF" stroke="#000000" width="60" height="75"/>
<g>
	<g>
		<circle fill="#FFFFFF" stroke="#000000" stroke-width="0.25" cx="185.598" cy="159.964" r="2.25"/>
		<circle fill="#FFFFFF" stroke="#000000" stroke-width="0.25" cx="192.348" cy="159.964" r="2.25"/>
		<circle fill="#FFFFFF" stroke="#000000" stroke-width="0.25" cx="199.098" cy="159.964" r="2.25"/>
		<circle fill="#FFFFFF" stroke="#000000" stroke-width="0.25" cx="205.848" cy="159.964" r="2.25"/>
		<circle fill="#FFFFFF" stroke="#000000" stroke-width="0.25" cx="212.598" cy="159.964" r="2.25"/>
	</g>
	<g>
		<circle fill="#FFFFFF" stroke="#000000" stroke-width="0.25" cx="178.848" cy="141.964" r="2.25"/>
		<circle fill="#FFFFFF" stroke="#000000" stroke-width="0.25" cx="185.598" cy="141.964" r="2.25"/>
		<circle fill="#FFFFFF" stroke="#000000" stroke-width="0.25" cx="192.348" cy="141.964" r="2.25"/>
		<circle fill="#FFFFFF" stroke="#000000" stroke-width="0.25" cx="199.098" cy="141.964" r="2.25"/>
		<circle fill="#FFFFFF" stroke="#000000" stroke-width="0.25" cx="205.848" cy="141.964" r="2.25"/>
		<circle fill="#FFFFFF" stroke="#000000" stroke-width="0.25" cx="212.598" cy="141.964" r="2.25"/>
		<circle fill="#FFFFFF" stroke="#000000" stroke-width="0.25" cx="219.348" cy="141.964" r="2.25"/>
	</g>
	<g>
		<circle fill="#FFFFFF" stroke="#000000" stroke-width="0.25" cx="175.473" cy="132.964" r="2.25"/>
		<circle fill="#FFFFFF" stroke="#000000" stroke-width="0.25" cx="182.223" cy="132.964" r="2.25"/>
		<circle fill="#FFFFFF" stroke="#000000" stroke-width="0.25" cx="188.973" cy="132.964" r="2.25"/>
		<circle fill="#FFFFFF" stroke="#000000" stroke-width="0.25" cx="195.723" cy="132.964" r="2.25"/>
		<circle fill="#FFFFFF" stroke="#000000" stroke-width="0.25" cx="202.473" cy="132.964" r="2.25"/>
		<circle fill="#FFFFFF" stroke="#000000" stroke-width="0.25" cx="209.223" cy="132.964" r="2.25"/>
		<circle fill="#FFFFFF" stroke="#000000" stroke-width="0.25" cx="215.973" cy="132.964" r="2.25"/>
		<circle fill="#FFFFFF" stroke="#000000" stroke-width="0.25" cx="222.723" cy="132.964" r="2.25"/>
	</g>
	<g>
		<circle fill="#FFFFFF" stroke="#000000" stroke-width="0.25" cx="178.848" cy="123.964" r="2.25"/>
		<circle fill="#FFFFFF" stroke="#000000" stroke-width="0.25" cx="185.598" cy="123.964" r="2.25"/>
		<circle fill="#FFFFFF" stroke="#000000" stroke-width="0.25" cx="192.348" cy="123.964" r="2.25"/>
		<circle fill="#FFFFFF" stroke="#000000" stroke-width="0.25" cx="199.098" cy="123.964" r="2.25"/>
		<circle fill="#FFFFFF" stroke="#000000" stroke-width="0.25" cx="205.848" cy="123.964" r="2.25"/>
		<circle fill="#FFFFFF" stroke="#000000" stroke-width="0.25" cx="212.598" cy="123.964" r="2.25"/>
		<circle fill="#FFFFFF" stroke="#000000" stroke-width="0.25" cx="219.348" cy="123.964" r="2.25"/>
	</g>
	<g>
		<circle fill="#FFFFFF" stroke="#000000" stroke-width="0.25" cx="182.223" cy="150.964" r="2.25"/>
		<circle fill="#FFFFFF" stroke="#000000" stroke-width="0.25" cx="188.973" cy="150.964" r="2.25"/>
		<circle fill="#FFFFFF" stroke="#000000" stroke-width="0.25" cx="195.723" cy="150.964" r="2.25"/>
		<circle fill="#FFFFFF" stroke="#000000" stroke-width="0.25" cx="202.473" cy="150.964" r="2.25"/>
		<circle fill="#FFFFFF" stroke="#000000" stroke-width="0.25" cx="209.223" cy="150.964" r="2.25"/>
		<circle fill="#FFFFFF" stroke="#000000" stroke-width="0.25" cx="215.973" cy="150.964" r="2.25"/>
	</g>
	<g>
		<circle fill="#FFFFFF" stroke="#000000" stroke-width="0.25" cx="182.223" cy="114.964" r="2.25"/>
		<circle fill="#FFFFFF" stroke="#000000" stroke-width="0.25" cx="188.973" cy="114.964" r="2.25"/>
		<circle fill="#FFFFFF" stroke="#000000" stroke-width="0.25" cx="195.723" cy="114.964" r="2.25"/>
		<circle fill="#FFFFFF" stroke="#000000" stroke-width="0.25" cx="202.473" cy="114.964" r="2.25"/>
		<circle fill="#FFFFFF" stroke="#000000" stroke-width="0.25" cx="209.223" cy="114.964" r="2.25"/>
		<circle fill="#FFFFFF" stroke="#000000" stroke-width="0.25" cx="215.973" cy="114.964" r="2.25"/>
	</g>
	<g>
		<circle fill="#FFFFFF" stroke="#000000" stroke-width="0.25" cx="185.598" cy="105.964" r="2.25"/>
		<circle fill="#FFFFFF" stroke="#000000" stroke-width="0.25" cx="192.348" cy="105.964" r="2.25"/>
		<circle fill="#FFFFFF" stroke="#000000" stroke-width="0.25" cx="199.098" cy="105.964" r="2.25"/>
		<circle fill="#FFFFFF" stroke="#000000" stroke-width="0.25" cx="205.848" cy="105.964" r="2.25"/>
		<circle fill="#FFFFFF" stroke="#000000" stroke-width="0.25" cx="212.598" cy="105.964" r="2.25"/>
	</g>
</g>
<rect x="99.098" y="95.464" fill="#FFFFFF" stroke="#000000" width="60" height="75"/>
<g>
	<g>
		<circle fill="#FFFFFF" stroke="#000000" stroke-width="0.25" cx="115.598" cy="159.964" r="2.25"/>
		<circle fill="#FFFFFF" stroke="#000000" stroke-width="0.25" cx="122.348" cy="159.964" r="2.25"/>
		<circle fill="#FFFFFF" stroke="#000000" stroke-width="0.25" cx="129.098" cy="159.964" r="2.25"/>
		<circle fill="#FFFFFF" stroke="#000000" stroke-width="0.25" cx="135.848" cy="159.964" r="2.25"/>
		<circle fill="#FFFFFF" stroke="#000000" stroke-width="0.25" cx="142.598" cy="159.964" r="2.25"/>
	</g>
	<g>
		<circle fill="#FFFFFF" stroke="#000000" stroke-width="0.25" cx="108.848" cy="141.964" r="2.25"/>
		<circle fill="#FFFFFF" stroke="#000000" stroke-width="0.25" cx="115.598" cy="141.964" r="2.25"/>
		<circle fill="#FFFFFF" stroke="#000000" stroke-width="0.25" cx="122.348" cy="141.964" r="2.25"/>
		<circle fill="#FFFFFF" stroke="#000000" stroke-width="0.25" cx="129.098" cy="141.964" r="2.25"/>
		<circle fill="#FFFFFF" stroke="#000000" stroke-width="0.25" cx="135.848" cy="141.964" r="2.25"/>
		<circle fill="#FFFFFF" stroke="#000000" stroke-width="0.25" cx="142.598" cy="141.964" r="2.25"/>
		<circle fill="#FFFFFF" stroke="#000000" stroke-width="0.25" cx="149.348" cy="141.964" r="2.25"/>
	</g>
	<g>
		<circle fill="#FFFFFF" stroke="#000000" stroke-width="0.25" cx="105.473" cy="132.964" r="2.25"/>
		<circle fill="#FFFFFF" stroke="#000000" stroke-width="0.25" cx="112.223" cy="132.964" r="2.25"/>
		<circle fill="#FFFFFF" stroke="#000000" stroke-width="0.25" cx="118.973" cy="132.964" r="2.25"/>
		<circle fill="#FFFFFF" stroke="#000000" stroke-width="0.25" cx="125.723" cy="132.964" r="2.25"/>
		<circle fill="#FFFFFF" stroke="#000000" stroke-width="0.25" cx="132.473" cy="132.964" r="2.25"/>
		<circle fill="#FFFFFF" stroke="#000000" stroke-width="0.25" cx="139.223" cy="132.964" r="2.25"/>
		<circle fill="#FFFFFF" stroke="#000000" stroke-width="0.25" cx="145.973" cy="132.964" r="2.25"/>
		<circle fill="#FFFFFF" stroke="#000000" stroke-width="0.25" cx="152.723" cy="132.964" r="2.25"/>
	</g>
	<g>
		<circle fill="#FFFFFF" stroke="#000000" stroke-width="0.25" cx="108.848" cy="123.964" r="2.25"/>
		<circle fill="#FFFFFF" stroke="#000000" stroke-width="0.25" cx="115.598" cy="123.964" r="2.25"/>
		<circle fill="#FFFFFF" stroke="#000000" stroke-width="0.25" cx="122.348" cy="123.964" r="2.25"/>
		<circle fill="#FFFFFF" stroke="#000000" stroke-width="0.25" cx="129.098" cy="123.964" r="2.25"/>
		<circle fill="#FFFFFF" stroke="#000000" stroke-width="0.25" cx="135.848" cy="123.964" r="2.25"/>
		<circle fill="#FFFFFF" stroke="#000000" stroke-width="0.25" cx="142.598" cy="123.964" r="2.25"/>
		<circle fill="#FFFFFF" stroke="#000000" stroke-width="0.25" cx="149.348" cy="123.964" r="2.25"/>
	</g>
	<g>
		<circle fill="#FFFFFF" stroke="#000000" stroke-width="0.25" cx="112.223" cy="150.964" r="2.25"/>
		<circle fill="#FFFFFF" stroke="#000000" stroke-width="0.25" cx="118.973" cy="150.964" r="2.25"/>
		<circle fill="#FFFFFF" stroke="#000000" stroke-width="0.25" cx="125.723" cy="150.964" r="2.25"/>
		<circle fill="#FFFFFF" stroke="#000000" stroke-width="0.25" cx="132.473" cy="150.964" r="2.25"/>
		<circle fill="#FFFFFF" stroke="#000000" stroke-width="0.25" cx="139.223" cy="150.964" r="2.25"/>
		<circle fill="#FFFFFF" stroke="#000000" stroke-width="0.25" cx="145.973" cy="150.964" r="2.25"/>
	</g>
	<g>
		<circle fill="#FFFFFF" stroke="#000000" stroke-width="0.25" cx="112.223" cy="114.964" r="2.25"/>
		<circle fill="#FFFFFF" stroke="#000000" stroke-width="0.25" cx="118.973" cy="114.964" r="2.25"/>
		<circle fill="#FFFFFF" stroke="#000000" stroke-width="0.25" cx="125.723" cy="114.964" r="2.25"/>
		<circle fill="#FFFFFF" stroke="#000000" stroke-width="0.25" cx="132.473" cy="114.964" r="2.25"/>
		<circle fill="#FFFFFF" stroke="#000000" stroke-width="0.25" cx="139.223" cy="114.964" r="2.25"/>
		<circle fill="#FFFFFF" stroke="#000000" stroke-width="0.25" cx="145.973" cy="114.964" r="2.25"/>
	</g>
	<g>
		<circle fill="#FFFFFF" stroke="#000000" stroke-width="0.25" cx="115.598" cy="105.964" r="2.25"/>
		<circle fill="#FFFFFF" stroke="#000000" stroke-width="0.25" cx="122.348" cy="105.964" r="2.25"/>
		<circle fill="#FFFFFF" stroke="#000000" stroke-width="0.25" cx="129.098" cy="105.964" r="2.25"/>
		<circle fill="#FFFFFF" stroke="#000000" stroke-width="0.25" cx="135.848" cy="105.964" r="2.25"/>
		<circle fill="#FFFFFF" stroke="#000000" stroke-width="0.25" cx="142.598" cy="105.964" r="2.25"/>
	</g>
</g>
<rect x="29.098" y="95.464" fill="#FFFFFF" stroke="#000000" width="60" height="75"/>
<g>
	<g>
		<circle fill="#FFFFFF" stroke="#000000" stroke-width="0.25" cx="45.598" cy="159.964" r="2.25"/>
		<circle fill="#FFFFFF" stroke="#000000" stroke-width="0.25" cx="52.348" cy="159.964" r="2.25"/>
		<circle fill="#FFFFFF" stroke="#000000" stroke-width="0.25" cx="59.098" cy="159.964" r="2.25"/>
		<circle fill="#FFFFFF" stroke="#000000" stroke-width="0.25" cx="65.848" cy="159.964" r="2.25"/>
		<circle fill="#FFFFFF" stroke="#000000" stroke-width="0.25" cx="72.598" cy="159.964" r="2.25"/>
	</g>
	<g>
		<circle fill="#FFFFFF" stroke="#000000" stroke-width="0.25" cx="38.848" cy="141.964" r="2.25"/>
		<circle fill="#FFFFFF" stroke="#000000" stroke-width="0.25" cx="45.598" cy="141.964" r="2.25"/>
		<circle fill="#FFFFFF" stroke="#000000" stroke-width="0.25" cx="52.348" cy="141.964" r="2.25"/>
		<circle fill="#FFFFFF" stroke="#000000" stroke-width="0.25" cx="59.098" cy="141.964" r="2.25"/>
		<circle fill="#FFFFFF" stroke="#000000" stroke-width="0.25" cx="65.848" cy="141.964" r="2.25"/>
		<circle fill="#FFFFFF" stroke="#000000" stroke-width="0.25" cx="72.598" cy="141.964" r="2.25"/>
		<circle fill="#FFFFFF" stroke="#000000" stroke-width="0.25" cx="79.348" cy="141.964" r="2.25"/>
	</g>
	<g>
		<circle fill="#FFFFFF" stroke="#000000" stroke-width="0.25" cx="35.473" cy="132.964" r="2.25"/>
		<circle fill="#FFFFFF" stroke="#000000" stroke-width="0.25" cx="42.223" cy="132.964" r="2.25"/>
		<circle fill="#FFFFFF" stroke="#000000" stroke-width="0.25" cx="48.973" cy="132.964" r="2.25"/>
		<circle fill="#FFFFFF" stroke="#000000" stroke-width="0.25" cx="55.723" cy="132.964" r="2.25"/>
		<circle fill="#FFFFFF" stroke="#000000" stroke-width="0.25" cx="62.473" cy="132.964" r="2.25"/>
		<circle fill="#FFFFFF" stroke="#000000" stroke-width="0.25" cx="69.223" cy="132.964" r="2.25"/>
		<circle fill="#FFFFFF" stroke="#000000" stroke-width="0.25" cx="75.973" cy="132.964" r="2.25"/>
		<circle fill="#FFFFFF" stroke="#000000" stroke-width="0.25" cx="82.723" cy="132.964" r="2.25"/>
	</g>
	<g>
		<circle fill="#FFFFFF" stroke="#000000" stroke-width="0.25" cx="38.848" cy="123.964" r="2.25"/>
		<circle fill="#FFFFFF" stroke="#000000" stroke-width="0.25" cx="45.598" cy="123.964" r="2.25"/>
		<circle fill="#FFFFFF" stroke="#000000" stroke-width="0.25" cx="52.348" cy="123.964" r="2.25"/>
		<circle fill="#FFFFFF" stroke="#000000" stroke-width="0.25" cx="59.098" cy="123.964" r="2.25"/>
		<circle fill="#FFFFFF" stroke="#000000" stroke-width="0.25" cx="65.848" cy="123.964" r="2.25"/>
		<circle fill="#FFFFFF" stroke="#000000" stroke-width="0.25" cx="72.598" cy="123.964" r="2.25"/>
		<circle fill="#FFFFFF" stroke="#000000" stroke-width="0.25" cx="79.348" cy="123.964" r="2.25"/>
	</g>
	<g>
		<circle fill="#FFFFFF" stroke="#000000" stroke-width="0.25" cx="42.223" cy="150.964" r="2.25"/>
		<circle fill="#FFFFFF" stroke="#000000" stroke-width="0.25" cx="48.973" cy="150.964" r="2.25"/>
		<circle fill="#FFFFFF" stroke="#000000" stroke-width="0.25" cx="55.723" cy="150.964" r="2.25"/>
		<circle fill="#FFFFFF" stroke="#000000" stroke-width="0.25" cx="62.473" cy="150.964" r="2.25"/>
		<circle fill="#FFFFFF" stroke="#000000" stroke-width="0.25" cx="69.223" cy="150.964" r="2.25"/>
		<circle fill="#FFFFFF" stroke="#000000" stroke-width="0.25" cx="75.973" cy="150.964" r="2.25"/>
	</g>
	<g>
		<circle fill="#FFFFFF" stroke="#000000" stroke-width="0.25" cx="42.223" cy="114.964" r="2.25"/>
		<circle fill="#FFFFFF" stroke="#000000" stroke-width="0.25" cx="48.973" cy="114.964" r="2.25"/>
		<circle fill="#FFFFFF" stroke="#000000" stroke-width="0.25" cx="55.723" cy="114.964" r="2.25"/>
		<circle fill="#FFFFFF" stroke="#000000" stroke-width="0.25" cx="62.473" cy="114.964" r="2.25"/>
		<circle fill="#FFFFFF" stroke="#000000" stroke-width="0.25" cx="69.223" cy="114.964" r="2.25"/>
		<circle fill="#FFFFFF" stroke="#000000" stroke-width="0.25" cx="75.973" cy="114.964" r="2.25"/>
	</g>
	<g>
		<circle fill="#FFFFFF" stroke="#000000" stroke-width="0.25" cx="45.598" cy="105.964" r="2.25"/>
		<circle fill="#FFFFFF" stroke="#000000" stroke-width="0.25" cx="52.348" cy="105.964" r="2.25"/>
		<circle fill="#FFFFFF" stroke="#000000" stroke-width="0.25" cx="59.098" cy="105.964" r="2.25"/>
		<circle fill="#FFFFFF" stroke="#000000" stroke-width="0.25" cx="65.848" cy="105.964" r="2.25"/>
		<circle fill="#FFFFFF" stroke="#000000" stroke-width="0.25" cx="72.598" cy="105.964" r="2.25"/>
	</g>
</g>
<g>
</g>
<g>
	<polyline fill="none" stroke="#000000" points="35,334.464 59,334.464 59,334.046 59,309.046 	"/>
	<path d="M59,309.556l-1.802,1.096l-0.041-0.062l1.167-2.938c0.226-1.023,0.45-2.047,0.676-3.07c0.225,1.023,0.45,2.047,0.676,3.07
		l1.167,2.938l-0.031,0.062L59,309.556z"/>
</g>
<g>
	<polyline fill="none" stroke="#000000" points="35,340.464 129,340.464 129,334.046 129,309.046 	"/>
	<path d="M129,309.556l-1.802,1.096l-0.041-0.062l1.167-2.938c0.226-1.023,0.45-2.047,0.676-3.07c0.225,1.023,0.45,2.047,0.676,3.07
		l1.167,2.938l-0.031,0.062L129,309.556z"/>
</g>
<g>
	<polyline fill="none" stroke="#000000" points="35,346.464 199,346.464 199,334.046 199,309.046 	"/>
	<path d="M199,309.556l-1.802,1.096l-0.04-0.062l1.166-2.938c0.226-1.023,0.45-2.047,0.676-3.07c0.225,1.023,0.45,2.047,0.676,3.07
		l1.166,2.938l-0.03,0.062L199,309.556z"/>
</g>
<g>
	<polyline fill="none" stroke="#000000" points="35,352.464 269,352.464 269,334.046 269,309.046 	"/>
	<path d="M269,309.556l-1.802,1.096l-0.04-0.062l1.166-2.938c0.226-1.023,0.45-2.047,0.676-3.07c0.225,1.023,0.45,2.047,0.676,3.07
		l1.166,2.938l-0.03,0.062L269,309.556z"/>
</g>
<g>
	<polyline fill="none" stroke="#000000" points="35,358.464 339,358.464 339,334.046 339,309.046 	"/>
	<path d="M339,309.556l-1.802,1.096l-0.04-0.062l1.166-2.938c0.226-1.023,0.45-2.047,0.676-3.07c0.225,1.023,0.45,2.047,0.676,3.07
		l1.166,2.938l-0.03,0.062L339,309.556z"/>
</g>
<g>
	<line fill="none" stroke="#000000" x1="59.098" y1="267.464" x2="59.098" y2="242.464"/>
	<path d="M59.098,242.975l-1.802,1.095l-0.041-0.061l1.167-2.938c0.226-1.023,0.45-2.048,0.676-3.071
		c0.225,1.023,0.45,2.048,0.676,3.071l1.167,2.938l-0.031,0.061L59.098,242.975z"/>
</g>
<g>
	<line fill="none" stroke="#000000" x1="59.098" y1="201.464" x2="59.098" y2="176.464"/>
	<path d="M59.098,176.975l-1.802,1.095l-0.041-0.061l1.167-2.938c0.226-1.023,0.45-2.048,0.676-3.071
		c0.225,1.023,0.45,2.048,0.676,3.071l1.167,2.938l-0.031,0.061L59.098,176.975z"/>
</g>
<g>
	<line fill="none" stroke="#000000" x1="59.098" y1="95.464" x2="59.098" y2="70.464"/>
	<path d="M59.098,70.975l-1.802,1.095l-0.041-0.061l1.167-2.938c0.226-1.023,0.45-2.048,0.676-3.071
		c0.225,1.023,0.45,2.048,0.676,3.071l1.167,2.938l-0.031,0.061L59.098,70.975z"/>
</g>
<g>
	<line fill="none" stroke="#000000" x1="129.098" y1="95.464" x2="129.098" y2="70.464"/>
	<path d="M129.098,70.975l-1.802,1.095l-0.041-0.061l1.167-2.938c0.226-1.023,0.45-2.047,0.676-3.071
		c0.225,1.023,0.45,2.047,0.676,3.071l1.167,2.938l-0.031,0.061L129.098,70.975z"/>
</g>
<g>
	<line fill="none" stroke="#000000" x1="199.098" y1="95.464" x2="199.098" y2="70.464"/>
	<path d="M199.098,70.975l-1.802,1.095l-0.04-0.061l1.166-2.938c0.226-1.023,0.45-2.047,0.676-3.071
		c0.225,1.023,0.45,2.047,0.676,3.071l1.166,2.938l-0.03,0.061L199.098,70.975z"/>
</g>
<g>
	<line fill="none" stroke="#000000" x1="269.098" y1="95.464" x2="269.098" y2="70.464"/>
	<path d="M269.098,70.975l-1.802,1.095l-0.04-0.061l1.166-2.938c0.226-1.023,0.45-2.047,0.676-3.071
		c0.225,1.023,0.45,2.047,0.676,3.071l1.166,2.938l-0.03,0.061L269.098,70.975z"/>
</g>
<g>
	<line fill="none" stroke="#000000" x1="339.098" y1="95.464" x2="339.098" y2="70.464"/>
	<path d="M339.098,70.975l-1.802,1.095l-0.04-0.061l1.166-2.938c0.226-1.023,0.45-2.047,0.676-3.071
		c0.225,1.023,0.45,2.047,0.676,3.071l1.166,2.938l-0.03,0.061L339.098,70.975z"/>
</g>
<g>
	<line fill="none" stroke="#000000" x1="199.098" y1="29.464" x2="199.098" y2="4.464"/>
	<path d="M199.098,4.975l-1.802,1.095l-0.04-0.061l1.166-2.938c0.226-1.023,0.45-2.047,0.676-3.071
		c0.225,1.023,0.45,2.047,0.676,3.071l1.166,2.938l-0.03,0.061L199.098,4.975z"/>
</g>
<g>
	<rect x="29.098" y="267.464" fill="none" stroke="#000000" width="59.999" height="36"/>
	<text transform="matrix(1 0 0 1 41.5986 282.4248)"><tspan x="0" y="0" font-family="'TimesNewRomanPSMT'" font-size="9">Bootstrap</tspan><tspan x="0.248" y="10.799" font-family="'TimesNewRomanPSMT'" font-size="9">Sampling</tspan></text>
</g>
<g>
	<rect x="99.098" y="201.464" fill="none" stroke="#000000" width="60" height="36"/>
	<text transform="matrix(1 0 0 1 117.5972 216.4248)"><tspan x="0" y="0" font-family="'TimesNewRomanPSMT'" font-size="9">Single</tspan><tspan x="-8.246" y="10.799" font-family="'TimesNewRomanPSMT'" font-size="9">Imputation</tspan></text>
</g>
<g>
	<line fill="none" stroke="#000000" x1="129.098" y1="267.464" x2="129.098" y2="242.464"/>
	<path d="M129.098,242.975l-1.802,1.095l-0.041-0.061l1.167-2.938c0.226-1.023,0.45-2.048,0.676-3.071
		c0.225,1.023,0.45,2.048,0.676,3.071l1.167,2.938l-0.031,0.061L129.098,242.975z"/>
</g>
<g>
	<line fill="none" stroke="#000000" x1="129.098" y1="201.464" x2="129.098" y2="176.464"/>
	<path d="M129.098,176.975l-1.802,1.095l-0.041-0.061l1.167-2.938c0.226-1.023,0.45-2.048,0.676-3.071
		c0.225,1.023,0.45,2.048,0.676,3.071l1.167,2.938l-0.031,0.061L129.098,176.975z"/>
</g>
<g>
	<rect x="99.098" y="267.464" fill="none" stroke="#000000" width="60" height="36"/>
	<text transform="matrix(1 0 0 1 111.5986 282.4248)"><tspan x="0" y="0" font-family="'TimesNewRomanPSMT'" font-size="9">Bootstrap</tspan><tspan x="0.248" y="10.799" font-family="'TimesNewRomanPSMT'" font-size="9">Sampling</tspan></text>
</g>
<g>
	<rect x="169.098" y="201.464" fill="none" stroke="#000000" width="60" height="36"/>
	<text transform="matrix(1 0 0 1 187.5977 216.4248)"><tspan x="0" y="0" font-family="'TimesNewRomanPSMT'" font-size="9">Single</tspan><tspan x="-8.246" y="10.799" font-family="'TimesNewRomanPSMT'" font-size="9">Imputation</tspan></text>
</g>
<g>
	<line fill="none" stroke="#000000" x1="199.098" y1="267.464" x2="199.098" y2="242.464"/>
	<path d="M199.098,242.975l-1.802,1.095l-0.04-0.061l1.166-2.938c0.226-1.023,0.45-2.048,0.676-3.071
		c0.225,1.023,0.45,2.048,0.676,3.071l1.166,2.938l-0.03,0.061L199.098,242.975z"/>
</g>
<g>
	<line fill="none" stroke="#000000" x1="199.098" y1="201.464" x2="199.098" y2="176.464"/>
	<path d="M199.098,176.975l-1.802,1.095l-0.04-0.061l1.166-2.938c0.226-1.023,0.45-2.048,0.676-3.071
		c0.225,1.023,0.45,2.048,0.676,3.071l1.166,2.938l-0.03,0.061L199.098,176.975z"/>
</g>
<g>
	<rect x="169.098" y="267.464" fill="none" stroke="#000000" width="60" height="36"/>
	<text transform="matrix(1 0 0 1 181.5986 282.4248)"><tspan x="0" y="0" font-family="'TimesNewRomanPSMT'" font-size="9">Bootstrap</tspan><tspan x="0.248" y="10.799" font-family="'TimesNewRomanPSMT'" font-size="9">Sampling</tspan></text>
</g>
<g>
	<rect x="239.098" y="201.464" fill="none" stroke="#000000" width="60" height="36"/>
	<text transform="matrix(1 0 0 1 257.5977 216.4248)"><tspan x="0" y="0" font-family="'TimesNewRomanPSMT'" font-size="9">Single</tspan><tspan x="-8.246" y="10.799" font-family="'TimesNewRomanPSMT'" font-size="9">Imputation</tspan></text>
</g>
<g>
	<line fill="none" stroke="#000000" x1="269.098" y1="267.464" x2="269.098" y2="242.464"/>
	<path d="M269.098,242.975l-1.802,1.095l-0.04-0.061l1.166-2.938c0.226-1.023,0.45-2.048,0.676-3.071
		c0.225,1.023,0.45,2.048,0.676,3.071l1.166,2.938l-0.03,0.061L269.098,242.975z"/>
</g>
<g>
	<line fill="none" stroke="#000000" x1="269.098" y1="201.464" x2="269.098" y2="176.464"/>
	<path d="M269.098,176.975l-1.802,1.095l-0.04-0.061l1.166-2.938c0.226-1.023,0.45-2.048,0.676-3.071
		c0.225,1.023,0.45,2.048,0.676,3.071l1.166,2.938l-0.03,0.061L269.098,176.975z"/>
</g>
<g>
	<rect x="239.098" y="267.464" fill="none" stroke="#000000" width="60" height="36"/>
	<text transform="matrix(1 0 0 1 251.5986 282.4248)"><tspan x="0" y="0" font-family="'TimesNewRomanPSMT'" font-size="9">Bootstrap</tspan><tspan x="0.248" y="10.799" font-family="'TimesNewRomanPSMT'" font-size="9">Sampling</tspan></text>
</g>
<g>
	<rect x="309.098" y="201.464" fill="none" stroke="#000000" width="60" height="36"/>
	<text transform="matrix(1 0 0 1 327.5977 216.4248)"><tspan x="0" y="0" font-family="'TimesNewRomanPSMT'" font-size="9">Single</tspan><tspan x="-8.246" y="10.799" font-family="'TimesNewRomanPSMT'" font-size="9">Imputation</tspan></text>
</g>
<g>
	<line fill="none" stroke="#000000" x1="339.098" y1="267.464" x2="339.098" y2="242.464"/>
	<path d="M339.098,242.975l-1.802,1.095l-0.04-0.061l1.166-2.938c0.226-1.023,0.45-2.048,0.676-3.071
		c0.225,1.023,0.45,2.048,0.676,3.071l1.166,2.938l-0.03,0.061L339.098,242.975z"/>
</g>
<g>
	<line fill="none" stroke="#000000" x1="339.098" y1="201.464" x2="339.098" y2="176.464"/>
	<path d="M339.098,176.975l-1.802,1.095l-0.04-0.061l1.166-2.938c0.226-1.023,0.45-2.048,0.676-3.071
		c0.225,1.023,0.45,2.048,0.676,3.071l1.166,2.938l-0.03,0.061L339.098,176.975z"/>
</g>
<g>
	<rect x="309.098" y="267.464" fill="none" stroke="#000000" width="60" height="36"/>
	<text transform="matrix(1 0 0 1 321.5986 282.4248)"><tspan x="0" y="0" font-family="'TimesNewRomanPSMT'" font-size="9">Bootstrap</tspan><tspan x="0.248" y="10.799" font-family="'TimesNewRomanPSMT'" font-size="9">Sampling</tspan></text>
</g>
<line fill="none" stroke="#000000" x1="35" y1="334.464" x2="35" y2="358.464"/>
</svg>
